<?xml version="1.0" encoding="UTF-8" standalone="no"?>
<!-- Created with Inkscape (http://www.inkscape.org/) -->

<svg
   xmlns:dc="http://purl.org/dc/elements/1.1/"
   xmlns:cc="http://creativecommons.org/ns#"
   xmlns:rdf="http://www.w3.org/1999/02/22-rdf-syntax-ns#"
   xmlns:svg="http://www.w3.org/2000/svg"
   xmlns="http://www.w3.org/2000/svg"
   xmlns:xlink="http://www.w3.org/1999/xlink"
   xmlns:sodipodi="http://sodipodi.sourceforge.net/DTD/sodipodi-0.dtd"
   xmlns:inkscape="http://www.inkscape.org/namespaces/inkscape"
   version="1.1"
   width="838"
   height="256"
   id="svg2"
   sodipodi:docname="logo-github.svg"
   inkscape:version="0.92.4 (5da689c313, 2019-01-14)"
   inkscape:export-filename="C:\Users\j.trees\source\repos\XAMPP-Virtual-Hosts\assets\logo-github.png"
   inkscape:export-xdpi="96"
   inkscape:export-ydpi="96">
  <sodipodi:namedview
     pagecolor="#ffffff"
     bordercolor="#666666"
     borderopacity="1"
     objecttolerance="10"
     gridtolerance="10"
     guidetolerance="10"
     inkscape:pageopacity="0"
     inkscape:pageshadow="2"
     inkscape:window-width="1920"
     inkscape:window-height="1027"
     id="namedview51"
     showgrid="false"
     borderlayer="true"
     inkscape:showpageshadow="false"
     inkscape:snap-bbox="true"
     inkscape:bbox-paths="true"
     inkscape:bbox-nodes="true"
     inkscape:snap-bbox-edge-midpoints="true"
     inkscape:snap-bbox-midpoints="true"
     inkscape:object-paths="true"
     inkscape:snap-intersection-paths="true"
     inkscape:snap-smooth-nodes="true"
     inkscape:snap-midpoints="true"
     inkscape:snap-object-midpoints="true"
     inkscape:snap-center="true"
     inkscape:snap-text-baseline="true"
     inkscape:snap-page="true"
     showguides="true"
     inkscape:guide-bbox="true"
     inkscape:zoom="0.70646766"
     inkscape:cx="324.34994"
     inkscape:cy="136.16119"
     inkscape:window-x="-8"
     inkscape:window-y="-7"
     inkscape:window-maximized="1"
     inkscape:current-layer="svg2">
    <sodipodi:guide
       position="286.7258,30"
       orientation="0,1"
       id="guide883"
       inkscape:locked="false" />
    <sodipodi:guide
       position="659.09573,226"
       orientation="0,1"
       id="guide946"
       inkscape:locked="false" />
    <sodipodi:guide
       position="808,246.09744"
       orientation="1,0"
       id="guide948"
       inkscape:locked="false" />
    <sodipodi:guide
       position="30,238.6875"
       orientation="1,0"
       id="guide965"
       inkscape:locked="false" />
  </sodipodi:namedview>
  <defs
     id="defs4">
    <inkscape:path-effect
       effect="spiro"
       id="path-effect1014"
       is_visible="true" />
    <inkscape:path-effect
       effect="spiro"
       id="path-effect1005"
       is_visible="true" />
    <inkscape:path-effect
       effect="spiro"
       id="path-effect1001"
       is_visible="true" />
    <inkscape:path-effect
       effect="powerstroke"
       id="path-effect984"
       is_visible="true"
       offset_points="9,0.5"
       sort_points="true"
       interpolator_type="CubicBezierJohan"
       interpolator_beta="0.2"
       start_linecap_type="zerowidth"
       linejoin_type="extrp_arc"
       miter_limit="4"
       end_linecap_type="zerowidth" />
    <inkscape:path-effect
       effect="spiro"
       id="path-effect982"
       is_visible="true" />
    <inkscape:path-effect
       effect="powerstroke"
       id="path-effect971"
       is_visible="true"
       offset_points="10,0.5"
       sort_points="true"
       interpolator_type="CubicBezierJohan"
       interpolator_beta="0.2"
       start_linecap_type="zerowidth"
       linejoin_type="extrp_arc"
       miter_limit="4"
       end_linecap_type="zerowidth" />
    <inkscape:path-effect
       effect="spiro"
       id="path-effect969"
       is_visible="true" />
    <filter
       id="filter3266"
       style="color-interpolation-filters:sRGB">
      <feGaussianBlur
         stdDeviation="1.6539159"
         id="feGaussianBlur7" />
    </filter>
    <filter
       x="-0.013222156"
       y="-0.12982461"
       width="1.0264443"
       height="1.2596492"
       id="filter3244"
       style="color-interpolation-filters:sRGB">
      <feGaussianBlur
         stdDeviation="0.81587431"
         id="feGaussianBlur10" />
    </filter>
    <radialGradient
       cx="9.4366283"
       cy="-68.900307"
       r="93.692001"
       fx="9.4366283"
       fy="-68.900307"
       id="radialGradient5349"
       gradientUnits="userSpaceOnUse"
       gradientTransform="matrix(2.7598586,0,0,2.2207325,104.43974,285.52915)">
      <stop
         id="stop13"
         style="stop-color:#c44c04;stop-opacity:1"
         offset="0" />
      <stop
         id="stop15"
         style="stop-color:#b85519;stop-opacity:1"
         offset="1" />
    </radialGradient>
    <radialGradient
       cx="4.7613902"
       cy="-37.494125"
       r="82.918999"
       fx="4.7613902"
       fy="-37.494125"
       id="radialGradient5361"
       gradientUnits="userSpaceOnUse"
       gradientTransform="matrix(2.5543341,0,0,2.5386236,117.68719,228.14382)">
      <stop
         id="stop18"
         style="stop-color:#f5660f;stop-opacity:1"
         offset="0" />
      <stop
         id="stop3857"
         style="stop-color:#f66e18;stop-opacity:0.61068702"
         offset="0.5" />
      <stop
         id="stop20"
         style="stop-color:#f77721;stop-opacity:0"
         offset="1" />
    </radialGradient>
    <radialGradient
       cx="9.4366245"
       cy="-133.67476"
       r="93.692001"
       fx="9.4366245"
       fy="-133.67476"
       id="radialGradient3082"
       xlink:href="#radialGradient5349"
       gradientUnits="userSpaceOnUse"
       gradientTransform="matrix(2.7598586,0,0,2.2207325,104.43975,429.37587)" />
    <radialGradient
       cx="4.7613864"
       cy="-91.987823"
       r="82.918999"
       fx="4.7613864"
       fy="-91.987823"
       id="radialGradient3084"
       xlink:href="#radialGradient5361"
       gradientUnits="userSpaceOnUse"
       gradientTransform="matrix(2.6045719,0,0,2.5885524,118.41784,370.88887)" />
    <radialGradient
       cx="4.7613864"
       cy="-91.987823"
       r="82.918999"
       fx="4.7613864"
       fy="-91.987823"
       id="radialGradient3084-1"
       xlink:href="#radialGradient5361-0"
       gradientUnits="userSpaceOnUse"
       gradientTransform="matrix(2.5543341,0,0,2.5386236,117.6872,366.48281)" />
    <radialGradient
       cx="9.4366245"
       cy="-133.67476"
       r="93.692001"
       fx="9.4366245"
       fy="-133.67476"
       id="radialGradient3082-8"
       xlink:href="#radialGradient5349-7"
       gradientUnits="userSpaceOnUse"
       gradientTransform="matrix(2.7598586,0,0,2.2207325,104.43975,429.37587)" />
    <radialGradient
       cx="4.7613902"
       cy="-37.494125"
       r="82.918999"
       fx="4.7613902"
       fy="-37.494125"
       id="radialGradient5361-0"
       gradientUnits="userSpaceOnUse"
       gradientTransform="matrix(2.5543341,0,0,2.5386236,117.68719,228.14382)">
      <stop
         id="stop18-8"
         style="stop-color:#f65f0c;stop-opacity:1"
         offset="0" />
      <stop
         id="stop20-0"
         style="stop-color:#f77721;stop-opacity:0"
         offset="1" />
    </radialGradient>
    <radialGradient
       cx="9.4366283"
       cy="-68.900307"
       r="93.692001"
       fx="9.4366283"
       fy="-68.900307"
       id="radialGradient5349-7"
       gradientUnits="userSpaceOnUse"
       gradientTransform="matrix(2.7598586,0,0,2.2207325,104.43974,285.52915)">
      <stop
         id="stop13-3"
         style="stop-color:#fb6e29;stop-opacity:1"
         offset="0" />
      <stop
         id="stop15-4"
         style="stop-color:#b85519;stop-opacity:1"
         offset="1" />
    </radialGradient>
    <filter
       x="-0.013222156"
       y="-0.12982461"
       width="1.0264443"
       height="1.2596492"
       id="filter3244-6"
       style="color-interpolation-filters:sRGB">
      <feGaussianBlur
         id="feGaussianBlur10-6"
         stdDeviation="0.81587431" />
    </filter>
    <filter
       id="filter3266-0"
       style="color-interpolation-filters:sRGB">
      <feGaussianBlur
         id="feGaussianBlur7-5"
         stdDeviation="1.6539159" />
    </filter>
    <radialGradient
       cx="4.7613864"
       cy="-91.987823"
       r="82.918999"
       fx="4.7613864"
       fy="-91.987823"
       id="radialGradient3874"
       xlink:href="#radialGradient5361"
       gradientUnits="userSpaceOnUse"
       gradientTransform="matrix(2.6045719,0,0,2.5885524,118.41785,370.88887)" />
  </defs>
  <metadata
     id="metadata22">
    <rdf:RDF>
      <cc:Work
         rdf:about="">
        <dc:format>image/svg+xml</dc:format>
        <dc:type
           rdf:resource="http://purl.org/dc/dcmitype/StillImage" />
        <dc:title></dc:title>
      </cc:Work>
    </rdf:RDF>
  </metadata>
  <rect
     style="opacity:1;fill:#ffe6d5;fill-opacity:1;stroke:none;stroke-width:0.1;stroke-linecap:round;stroke-linejoin:round;stroke-miterlimit:4;stroke-dasharray:none;stroke-dashoffset:0;stroke-opacity:1;paint-order:stroke markers fill"
     id="rect995"
     width="838"
     height="256"
     x="0"
     y="0" />
  <path
     style="opacity:1;fill:#ffccaa;fill-opacity:1;stroke:none;stroke-width:0.1;stroke-linecap:round;stroke-linejoin:round;stroke-miterlimit:4;stroke-dasharray:none;stroke-dashoffset:0;stroke-opacity:1;paint-order:stroke markers fill"
     d="m 0,0 v 133.85352 c 1.394093,0.24616 2.7764063,0.55436 4.1738281,0.78125 4.8664567,0.79012 9.7530289,1.46168 14.6523439,2.01757 4.899315,0.5559 9.811921,0.99551 14.732422,1.31641 4.920501,0.3209 9.847328,0.52423 14.777344,0.60937 4.930015,0.0851 9.863157,0.0518 14.791015,-0.0996 4.927858,-0.15137 9.851596,-0.41996 14.765625,-0.8086 4.914029,-0.38864 9.818503,-0.89676 14.707031,-1.52344 4.888528,-0.62667 9.759971,-1.3728 14.611331,-2.23828 4.85135,-0.86547 9.68186,-1.85004 14.48437,-2.95508 4.80251,-1.10503 9.57832,-2.33042 14.32031,-3.67578 4.742,-1.34535 9.44934,-2.81199 14.11915,-4.39843 8.69228,-2.95297 17.25272,-6.30299 26.02539,-9.00782 5.62626,-1.73471 11.30688,-3.19354 17.03125,-4.40625 5.72437,-1.2127 11.49183,-2.17918 17.29297,-2.92382 5.80113,-0.74465 11.63562,-1.26906 17.49218,-1.59961 5.85657,-0.33056 11.73435,-0.46708 17.625,-0.4375 5.89066,0.0296 11.79386,0.22674 17.69727,0.5625 5.9034,0.33575 11.80831,0.81047 17.70312,1.39843 5.89482,0.58797 11.77964,1.288 17.64453,2.07422 5.8649,0.78622 11.70981,1.65933 17.52344,2.58985 23.25451,3.72204 46.44085,8.35285 69.70117,12.12304 5.81508,0.94255 11.63445,1.83164 17.46094,2.63867 5.82649,0.80704 11.65964,1.53233 17.50195,2.14844 5.84232,0.61611 11.69408,1.12437 17.55664,1.49414 5.86257,0.36978 11.73582,0.60189 17.62305,0.66992 6.53669,0.0755 13.0713,-0.0528 19.60352,-0.32617 6.53222,-0.2734 13.06166,-0.69205 19.58984,-1.19726 13.05636,-1.01043 26.10572,-2.36663 39.14844,-3.60157 6.52136,-0.61746 13.04196,-1.20521 19.56055,-1.70312 6.51858,-0.49791 13.03455,-0.90674 19.55078,-1.16797 6.51623,-0.26122 13.03257,-0.37383 19.54687,-0.28125 6.5143,0.0926 13.02628,0.38961 19.53906,0.95313 7.37952,0.6385 14.71151,1.6144 22.00586,2.83593 7.29436,1.22153 14.55281,2.68906 21.78711,4.31446 7.23431,1.6254 14.4432,3.40769 21.64258,5.25781 7.19938,1.85012 14.38856,3.76838 21.57813,5.66406 7.18957,1.89569 14.38105,3.76915 21.58593,5.53125 7.20489,1.7621 14.42265,3.41392 21.66797,4.86328 7.24532,1.44937 14.51725,2.69682 21.82813,3.6543 3.65544,0.47874 7.32151,0.88486 10.99804,1.20703 3.67654,0.32218 7.36368,0.55991 11.06446,0.70313 6.31173,0.24426 12.63101,0.19838 18.93554,-0.13086 6.30454,-0.32924 12.59483,-0.94249 18.84571,-1.83008 4.53628,-0.64413 9.02089,-1.5941 13.50781,-2.52539 V 0 Z"
     id="rect997"
     inkscape:connector-curvature="0" />
  <path
     style="opacity:0.8;fill:#ffb380;fill-opacity:1;stroke:none;stroke-width:0.1;stroke-linecap:round;stroke-linejoin:round;stroke-miterlimit:4;stroke-dasharray:none;stroke-dashoffset:0;stroke-opacity:1;paint-order:stroke markers fill"
     d="M 612.0918 0 C 647.17932 29.181921 686.55934 53.207975 728.6582 70.832031 C 751.79325 80.517172 775.81746 88.3572 797.66211 100.67969 C 813.06925 109.37079 827.54856 120.69111 838 134.7832 L 838 0 L 612.0918 0 z M 0 40.154297 L 0 256 L 644.60352 256 C 626.20727 245.95282 608.60158 234.15991 591.26172 222.37109 C 558.8808 200.35634 526.05793 177.77274 488.70898 166.01562 C 452.11753 154.49697 413.11448 153.98103 374.76172 153.15625 C 336.40896 152.33147 297.30431 150.95837 261.23633 137.89258 C 231.29347 127.04564 204.80706 108.62357 178.22266 91.087891 C 151.63825 73.55221 123.99971 56.457653 93.083984 48.8125 C 70.441 43.213114 46.885137 42.900459 23.585938 41.802734 C 15.736154 41.432898 7.844549 40.951717 0 40.154297 z M 838 235.39648 C 832.70567 243.06872 826.32654 250.00848 819.16016 256 L 838 256 L 838 235.39648 z "
     id="rect1010" />
  <g
     id="g929"
     transform="matrix(0.76666402,0,0,0.76606408,97.959598,29.943793)"
     style="stroke-width:1.3048631">
    <g
       style="stroke-width:0.56907469"
       transform="matrix(1.3200913,0,0,1.2686836,248.884,-35.207671)"
       id="g3069">
      <path
         inkscape:connector-curvature="0"
         style="fill:#bb4803;fill-opacity:1;fill-rule:evenodd;stroke-width:0.56907469"
         id="path28"
         d="m 58.084,35.787 h 141.93 c 12.592,0 22.728,7.4337 22.728,16.668 v 153.04 c 0,9.2338 -10.137,16.668 -22.728,16.668 H 58.084 c -12.592,0 -22.728,-7.4337 -22.728,-16.668 V 52.455 c 0,-9.2338 10.137,-16.668 22.728,-16.668 z" />
      <path
         inkscape:connector-curvature="0"
         style="fill:url(#radialGradient3874);fill-rule:evenodd;stroke-width:0.56907469;filter:url(#filter3266)"
         id="path30"
         transform="matrix(1.0197571,0,0,1.0197571,-2.9203116,-2.8767895)"
         d="m 66.243,46.501 h 125.61 c 11.144,0 20.115,6.579 20.115,14.751 v 135.44 c 0,8.1721 -8.9714,14.751 -20.115,14.751 H 66.243 c -11.144,0 -20.115,-6.579 -20.115,-14.751 V 61.252 c 0,-8.1721 8.9714,-14.751 20.115,-14.751 z" />
      <path
         inkscape:connector-curvature="0"
         style="opacity:0.44899998;fill:#ffffff;fill-rule:evenodd;stroke-width:0.56907469;filter:url(#filter3244)"
         id="path32"
         d="m 53.571,46.769447 c 0,0 144.29,-1.4286 147.5,-0.35714 3.2143,1.0714 -7.1429,13.214 -19.286,14.286 -12.14,1.071 -103.57,-0.358 -103.57,-0.358 l -24.643,-13.571 z" />
      <path
         inkscape:connector-curvature="0"
         style="fill:#ffffff;fill-rule:evenodd;stroke-width:0.56907469"
         id="path34"
         d="m 131.87,107.62 c 0,19.108 -16.401,34.598 -36.633,34.598 -20.232,0 -36.633,-15.49 -36.633,-34.598 0,-19.108 16.401,-34.598 36.633,-34.598 20.232,0 36.633,15.49 36.633,34.598 z" />
      <path
         inkscape:connector-curvature="0"
         style="fill:#ffffff;fill-rule:evenodd;stroke-width:0.56907469"
         id="path36"
         d="m 132.14,152.82 c 0,21.339 -16.611,38.638 -37.102,38.638 -20.491,0 -37.102,-17.299 -37.102,-38.638 0,-21.339 16.611,-38.638 37.102,-38.638 20.491,0 37.102,17.299 37.102,38.638 z" />
      <path
         inkscape:connector-curvature="0"
         style="fill:#ffffff;fill-rule:evenodd;stroke-width:0.56907469"
         id="path38"
         d="m 201.84,109.64 c 0,20.921 -16.627,37.881 -37.138,37.881 -20.511,0 -37.138,-16.96 -37.138,-37.881 0,-20.921 16.627,-37.881 37.138,-37.881 20.511,0 37.138,16.96 37.138,37.881 z" />
      <path
         inkscape:connector-curvature="0"
         style="fill:#ffffff;fill-rule:evenodd;stroke-width:0.56907469"
         id="path40"
         d="m 199.79,154.34 c 0,21.339 -16.159,38.638 -36.092,38.638 -19.933,0 -36.092,-17.299 -36.092,-38.638 0,-21.339 16.159,-38.638 36.092,-38.638 19.933,0 36.092,17.299 36.092,38.638 z" />
      <path
         inkscape:connector-curvature="0"
         style="opacity:0.98999999;fill:#ffffff;fill-rule:nonzero;stroke-width:0.56907469"
         id="path42"
         d="m 92.448,110.02 h 76.071 v 45 H 92.448 Z" />
      <path
         inkscape:connector-curvature="0"
         style="color:#000000;text-indent:0;text-align:start;text-transform:none;direction:ltr;baseline-shift:baseline;fill:#fb7922;stroke-width:0.56907469;enable-background:accumulate"
         id="path44"
         d="m 165.22,96.562 a 11.251,11.251 0 0 0 -11.062,11.406 c 0,8.7742 -1.2622,10.62 -2.1875,11.375 -0.92534,0.75524 -5.8638,2.5 -16.75,2.5 -11.313,0 -21.859,-1.2363 -32.656,3 -5.3986,2.1182 -10.779,6.3554 -13.937,12.125 -3.1589,5.7696 -4.3125,12.413 -4.3125,20.094 a 11.251,11.251 0 1 0 22.5,0 c 0,-5.3197 0.89268,-8.1462 1.5312,-9.3125 0.63857,-1.1664 0.83332,-1.3081 2.4375,-1.9375 3.2084,-1.2588 12.476,-1.4688 24.438,-1.4688 12.504,0 22.652,-0.77484 30.969,-7.5625 8.3164,-6.7877 10.469,-17.503 10.469,-28.812 a 11.251,11.251 0 0 0 -11.438,-11.406 z" />
      <path
         inkscape:connector-curvature="0"
         style="color:#000000;text-indent:0;text-align:start;text-transform:none;direction:ltr;baseline-shift:baseline;fill:#fb7922;stroke-width:0.56907469;enable-background:accumulate"
         id="path46"
         d="m 165.25,130.91 a 11.251,11.251 0 0 0 -11.062,11.406 v 13.219 a 11.251,11.251 0 1 0 22.5,0 V 142.316 A 11.251,11.251 0 0 0 165.25,130.91 Z" />
      <path
         inkscape:connector-curvature="0"
         style="opacity:0.98999999;fill:#fb7922;stroke-width:0.56907469"
         id="path48"
         d="m 111.13,108.52 c 0,3.3973 -0.0237,12.917 -0.0237,12.917 0,0 -9.4998,0.0298 -13.387,0.0298 -7.4067,0 -13.411,-5.7963 -13.411,-12.946 0,-7.1502 6.0043,-12.947 13.411,-12.947 7.4067,0 13.411,5.7963 13.411,12.947 z" />
    </g>
    <g
       transform="translate(-1.011324,-0.89656067)"
       id="g909"
       style="stroke-width:1.3048631">
      <rect
         style="opacity:1;fill:#1a1a1a;fill-opacity:1;stroke:none;stroke-width:0.13048629;stroke-linecap:round;stroke-linejoin:round;stroke-miterlimit:4;stroke-dasharray:none;stroke-dashoffset:0;stroke-opacity:1;paint-order:stroke markers fill"
         id="rect4597"
         width="237.3882"
         height="64.58551"
         x="315.81155"
         y="162.31105" />
      <flowRoot
         xml:space="preserve"
         id="flowRoot4599"
         style="font-style:normal;font-variant:normal;font-weight:800;font-stretch:normal;font-size:40px;line-height:1.25;font-family:'Open Sans ExtraBold';-inkscape-font-specification:'Open Sans ExtraBold, Ultra-Bold';font-variant-ligatures:normal;font-variant-caps:normal;font-variant-numeric:normal;font-feature-settings:normal;text-align:start;letter-spacing:0px;word-spacing:0px;writing-mode:lr-tb;text-anchor:start;fill:#ffffff;fill-opacity:1;stroke:none;stroke-width:0.91717106"
         transform="matrix(1.4514845,0,0,1.3944947,936.74194,-134.30978)"><flowRegion
           id="flowRegion4601"
           style="font-style:normal;font-variant:normal;font-weight:800;font-stretch:normal;font-size:40px;font-family:'Open Sans ExtraBold';-inkscape-font-specification:'Open Sans ExtraBold, Ultra-Bold';font-variant-ligatures:normal;font-variant-caps:normal;font-variant-numeric:normal;font-feature-settings:normal;text-align:start;writing-mode:lr-tb;text-anchor:start;fill:#ffffff;stroke-width:0.91717106"><rect
             id="rect4603"
             width="357.32297"
             height="448.4053"
             x="-420.37997"
             y="214.73131"
             style="font-style:normal;font-variant:normal;font-weight:800;font-stretch:normal;font-size:40px;font-family:'Open Sans ExtraBold';-inkscape-font-specification:'Open Sans ExtraBold, Ultra-Bold';font-variant-ligatures:normal;font-variant-caps:normal;font-variant-numeric:normal;font-feature-settings:normal;text-align:start;writing-mode:lr-tb;text-anchor:start;fill:#ffffff;stroke-width:0.91717106" /></flowRegion><flowPara
           id="flowPara4605"
           style="fill:#ffffff;stroke-width:0.91717106">V-HOST</flowPara></flowRoot>    </g>
  </g>
</svg>
